<svg width="16" height="16" viewBox="0 0 16 16" fill="none" xmlns="http://www.w3.org/2000/svg">
<path d="M12 12.8337C12.2761 12.8337 12.5 13.0575 12.5 13.3337C12.5 13.6098 12.2761 13.8337 12 13.8337H4C3.72386 13.8337 3.5 13.6098 3.5 13.3337C3.5 13.0575 3.72386 12.8337 4 12.8337H12ZM7.5 2.66699C7.5 2.39085 7.72386 2.16699 8 2.16699C8.27614 2.16699 8.5 2.39085 8.5 2.66699V9.45996L9.97982 7.98014C10.1751 7.78488 10.4916 7.78488 10.6868 7.98014C10.8821 8.17541 10.8821 8.49191 10.6868 8.68717L8.35352 11.0205C8.15825 11.2158 7.84175 11.2158 7.64648 11.0205L5.31315 8.68717C5.11789 8.49191 5.11789 8.17541 5.31315 7.98014C5.50841 7.78488 5.82492 7.78488 6.02018 7.98014L7.5 9.45996V2.66699Z" fill="black" style="fill:black;fill-opacity:1;"/>
</svg>
