<svg width="24" height="24" viewBox="0 0 24 24" fill="none" xmlns="http://www.w3.org/2000/svg">
<path d="M7.99987 14.5717L6.17687 12.8357C6.02452 12.6911 5.84454 12.5787 5.64771 12.5054C5.45088 12.432 5.24127 12.3991 5.03144 12.4088C4.8216 12.4184 4.61587 12.4703 4.42658 12.5613C4.23729 12.6524 4.06835 12.7807 3.92987 12.9387C3.67546 13.2297 3.53819 13.6049 3.54465 13.9914C3.55112 14.3779 3.70087 14.7483 3.96487 15.0307L9.90687 21.3687C10.2859 21.7717 10.8129 22.0007 11.3659 22.0007H15.9999C18.3999 22.0007 19.9999 20.0007 19.9999 18.0007V9.42969" stroke="black" stroke-width="1.5" stroke-linecap="round" stroke-linejoin="round"/>
<path d="M20 9.429C20 7.143 17 7.143 17 9.429V10V8.286C17 6 14 6 14 8.286V10V7.5C14 5.214 11 5.214 11 7.5V10V3.499C11 2.67 10.328 2 9.5 2C9.10218 2 8.72064 2.15804 8.43934 2.43934C8.15804 2.72064 8 3.10218 8 3.5V14.571" stroke="black" stroke-width="1.5" stroke-linecap="round" stroke-linejoin="round"/>
</svg>
