<svg width="24" height="24" viewBox="0 0 24 24" fill="none" xmlns="http://www.w3.org/2000/svg">
<path d="M16.4697 7.96967C16.7626 7.67678 17.2373 7.67678 17.5302 7.96967C17.8231 8.26256 17.8231 8.73732 17.5302 9.03022L10.5302 16.0302C10.2373 16.3231 9.76256 16.3231 9.46967 16.0302L6.46967 13.0302C6.17678 12.7373 6.17678 12.2626 6.46967 11.9697C6.74427 11.6951 7.17899 11.6776 7.47358 11.9179L7.53022 11.9697L9.99994 14.4394L16.4697 7.96967Z" fill="black" style="fill:black;fill-opacity:1;"/>
<path d="M21.25 12C21.25 6.89121 17.1088 2.75 12 2.75C6.89121 2.75 2.75 6.89121 2.75 12C2.75 17.1088 6.89121 21.25 12 21.25C17.1088 21.25 21.25 17.1088 21.25 12ZM22.75 12C22.75 17.9372 17.9372 22.75 12 22.75C6.06279 22.75 1.25 17.9372 1.25 12C1.25 6.06279 6.06279 1.25 12 1.25C17.9372 1.25 22.75 6.06279 22.75 12Z" fill="black" style="fill:black;fill-opacity:1;"/>
</svg>
