<svg width="16" height="16" viewBox="0 0 16 16" fill="none" xmlns="http://www.w3.org/2000/svg">
<path d="M13.6732 6.36C13.6163 6.51955 13.528 6.66606 13.4135 6.79088C13.299 6.91569 13.1606 7.01627 13.0066 7.08667C12.1865 7.45373 11.4899 8.0497 11.0003 8.803C10.5107 9.5563 10.249 10.4349 10.2466 11.3333C10.2474 11.6476 10.2786 11.9587 10.3399 12.2667C10.3806 12.4545 10.3833 12.6486 10.3478 12.8376C10.3123 13.0265 10.2393 13.2064 10.1332 13.3667C10.0431 13.5067 9.92487 13.6264 9.78599 13.7182C9.64712 13.81 9.49066 13.8719 9.32656 13.9C8.96922 13.9667 8.60922 14 8.24656 14C7.44267 14.0004 6.6469 13.8392 5.90651 13.5261C5.16611 13.213 4.49619 12.7542 3.93653 12.1772C3.37687 11.6001 2.93888 10.9164 2.64857 10.1668C2.35826 9.41716 2.22155 8.61683 2.24656 7.81333C2.2983 6.3152 2.90589 4.88997 3.95098 3.81531C4.99606 2.74065 6.40378 2.09352 7.89989 2H8.23989C9.35706 2.00028 10.452 2.31246 11.4013 2.90138C12.3506 3.4903 13.1167 4.33257 13.6132 5.33333C13.7661 5.64999 13.7876 6.01419 13.6732 6.34667V6.36Z" stroke="white"/>
<path d="M5.33333 10.674L5.34 10.6667M4 8.00733L4.00667 8M5.33333 5.34067L5.34 5.33333M8 4.00733L8.00667 4M10.6667 5.34067L10.6733 5.33333" stroke="white" stroke-linecap="round" stroke-linejoin="round"/>
</svg>
