<svg width="16" height="16" viewBox="0 0 16 16" fill="none" xmlns="http://www.w3.org/2000/svg">
<g clip-path="url(#clip0_42_20731)">
<path fill-rule="evenodd" clip-rule="evenodd" d="M0.833504 7.99967C0.833504 4.04167 4.04217 0.833008 8.00017 0.833008C11.9582 0.833008 15.1668 4.04167 15.1668 7.99967C15.1668 11.9577 11.9582 15.1663 8.00017 15.1663C6.76284 15.1663 5.59684 14.8523 4.58017 14.2997L1.75817 14.8243C1.67842 14.8391 1.59628 14.8342 1.51883 14.8102C1.44138 14.7861 1.37094 14.7436 1.3136 14.6862C1.25625 14.6289 1.21371 14.5585 1.18965 14.481C1.1656 14.4036 1.16074 14.3214 1.1755 14.2417L1.70084 11.4197C1.12991 10.3703 0.831675 9.19432 0.833504 7.99967ZM8.00017 4.83301C8.13278 4.83301 8.25996 4.88569 8.35372 4.97945C8.44749 5.07322 8.50017 5.2004 8.50017 5.33301V7.99967C8.50017 8.13228 8.44749 8.25946 8.35372 8.35323C8.25996 8.447 8.13278 8.49967 8.00017 8.49967C7.86756 8.49967 7.74039 8.447 7.64662 8.35323C7.55285 8.25946 7.50017 8.13228 7.50017 7.99967V5.33301C7.50017 5.2004 7.55285 5.07322 7.64662 4.97945C7.74039 4.88569 7.86756 4.83301 8.00017 4.83301ZM8.37817 11.0003C8.42375 10.9519 8.45918 10.8948 8.48241 10.8324C8.50563 10.77 8.51618 10.7037 8.51342 10.6372C8.51067 10.5707 8.49467 10.5054 8.46637 10.4452C8.43806 10.385 8.39802 10.331 8.34859 10.2865C8.29916 10.2419 8.24134 10.2077 8.17851 10.1858C8.11567 10.1639 8.0491 10.1547 7.98269 10.1589C7.91628 10.163 7.85136 10.1804 7.79174 10.2099C7.73212 10.2395 7.67901 10.2807 7.6355 10.331L7.62884 10.3383C7.58326 10.3868 7.54782 10.4439 7.5246 10.5063C7.50137 10.5686 7.49083 10.635 7.49358 10.7015C7.49634 10.768 7.51234 10.8332 7.54064 10.8935C7.56895 10.9537 7.60899 11.0077 7.65842 11.0522C7.70785 11.0968 7.76567 11.131 7.8285 11.1529C7.89133 11.1748 7.95791 11.184 8.02432 11.1798C8.09073 11.1757 8.15565 11.1583 8.21527 11.1287C8.27488 11.0992 8.328 11.058 8.3715 11.0077L8.37817 11.0003Z" fill="#00BF40" style="fill:#00BF40;fill:color(display-p3 0.0000 0.7490 0.2510);fill-opacity:1;"/>
</g>
<defs>
<clipPath id="clip0_42_20731">
<rect width="16" height="16" fill="white" style="fill:white;fill-opacity:1;"/>
</clipPath>
</defs>
</svg>
