<svg width="12" height="12" viewBox="0 0 12 12" fill="none" xmlns="http://www.w3.org/2000/svg">
<path fill-rule="evenodd" clip-rule="evenodd" d="M6 0.625C3.0315 0.625 0.625 3.0315 0.625 6C0.625 8.9685 3.0315 11.375 6 11.375C8.9685 11.375 11.375 8.9685 11.375 6C11.375 3.0315 8.9685 0.625 6 0.625ZM6.375 4C6.375 3.90054 6.33549 3.80516 6.26516 3.73483C6.19484 3.66451 6.09946 3.625 6 3.625C5.90054 3.625 5.80516 3.66451 5.73484 3.73483C5.66451 3.80516 5.625 3.90054 5.625 4V5.625H4C3.90054 5.625 3.80516 5.66451 3.73483 5.73484C3.66451 5.80516 3.625 5.90054 3.625 6C3.625 6.09946 3.66451 6.19484 3.73483 6.26516C3.80516 6.33549 3.90054 6.375 4 6.375H5.625V8C5.625 8.09946 5.66451 8.19484 5.73484 8.26517C5.80516 8.33549 5.90054 8.375 6 8.375C6.09946 8.375 6.19484 8.33549 6.26516 8.26517C6.33549 8.19484 6.375 8.09946 6.375 8V6.375H8C8.09946 6.375 8.19484 6.33549 8.26517 6.26516C8.33549 6.19484 8.375 6.09946 8.375 6C8.375 5.90054 8.33549 5.80516 8.26517 5.73484C8.19484 5.66451 8.09946 5.625 8 5.625H6.375V4Z" fill="black" style="fill:black;fill-opacity:1;"/>
</svg>
