<svg width="16" height="16" viewBox="0 0 16 16" fill="none" xmlns="http://www.w3.org/2000/svg">
<path d="M14.1666 7.99992C14.1666 4.59406 11.4058 1.83325 7.99992 1.83325C4.59406 1.83325 1.83325 4.59406 1.83325 7.99992C1.83325 11.4058 4.59406 14.1666 7.99992 14.1666C11.4058 14.1666 14.1666 11.4058 14.1666 7.99992ZM7.49992 10.6666V8.49992H5.33325C5.05711 8.49992 4.83325 8.27606 4.83325 7.99992C4.83325 7.72378 5.05711 7.49992 5.33325 7.49992H7.49992V5.33325C7.49992 5.05711 7.72378 4.83325 7.99992 4.83325C8.27606 4.83325 8.49992 5.05711 8.49992 5.33325V7.49992H10.6666C10.9427 7.49992 11.1666 7.72378 11.1666 7.99992C11.1666 8.27606 10.9427 8.49992 10.6666 8.49992H8.49992V10.6666C8.49992 10.9427 8.27606 11.1666 7.99992 11.1666C7.72378 11.1666 7.49992 10.9427 7.49992 10.6666ZM15.1666 7.99992C15.1666 11.9581 11.9581 15.1666 7.99992 15.1666C4.04178 15.1666 0.833252 11.9581 0.833252 7.99992C0.833252 4.04178 4.04178 0.833252 7.99992 0.833252C11.9581 0.833252 15.1666 4.04178 15.1666 7.99992Z" fill="black"/>
</svg>
