<svg width="16" height="16" viewBox="0 0 16 16" fill="none" xmlns="http://www.w3.org/2000/svg">
<path d="M14.1668 7.99992C14.1668 4.59406 11.406 1.83325 8.00016 1.83325C4.59431 1.83325 1.8335 4.59406 1.8335 7.99992C1.8335 11.4058 4.59431 14.1666 8.00016 14.1666C11.406 14.1666 14.1668 11.4058 14.1668 7.99992ZM15.1668 7.99992C15.1668 11.9581 11.9583 15.1666 8.00016 15.1666C4.04202 15.1666 0.833496 11.9581 0.833496 7.99992C0.833496 4.04178 4.04202 0.833252 8.00016 0.833252C11.9583 0.833252 15.1668 4.04178 15.1668 7.99992Z" fill="#6F6F6F" style="fill:#6F6F6F;fill:color(display-p3 0.4359 0.4359 0.4359);fill-opacity:1;"/>
<path d="M8.36995 12.343C8.18419 12.5472 7.86786 12.5626 7.66357 12.3769C7.45927 12.1911 7.44466 11.8748 7.63037 11.6705L8.36995 12.343ZM7.63688 11.6627C7.82266 11.4585 8.13898 11.4438 8.34326 11.6295C8.54745 11.8152 8.56281 12.1316 8.37712 12.3359L8.36995 12.343L7.63037 11.6705L7.63688 11.6627ZM7.50016 9.33325C7.50016 8.75883 7.62144 8.3178 7.82568 7.95695C8.02503 7.60476 8.28698 7.36053 8.49886 7.16984C8.72538 6.96597 8.87699 6.8354 8.9904 6.66528C9.08929 6.51694 9.16683 6.32267 9.16683 5.99992C9.16683 5.56065 8.99995 5.26378 8.77035 5.06893C8.52983 4.86485 8.1914 4.74992 7.8335 4.74992C7.47559 4.74992 7.13717 4.86485 6.89665 5.06893C6.66704 5.26378 6.50016 5.56065 6.50016 5.99992C6.50016 6.27606 6.27631 6.49992 6.00016 6.49992C5.72402 6.49992 5.50016 6.27606 5.50016 5.99992C5.50016 5.27257 5.79166 4.69439 6.24951 4.30591C6.69648 3.9267 7.27477 3.74992 7.8335 3.74992C8.39223 3.74992 8.97051 3.9267 9.41748 4.30591C9.87533 4.69439 10.1668 5.27257 10.1668 5.99992C10.1668 6.5105 10.036 6.89956 9.82243 7.21997C9.62335 7.51859 9.35828 7.7422 9.16813 7.91333C8.96337 8.09762 8.80861 8.24929 8.69548 8.44914C8.58724 8.64036 8.50016 8.90771 8.50016 9.33325C8.50016 9.6094 8.27631 9.83325 8.00016 9.83325C7.72402 9.83325 7.50016 9.6094 7.50016 9.33325Z" fill="#6F6F6F" style="fill:#6F6F6F;fill:color(display-p3 0.4359 0.4359 0.4359);fill-opacity:1;"/>
</svg>
