<svg width="12" height="12" viewBox="0 0 12 12" fill="none" xmlns="http://www.w3.org/2000/svg">
<g clip-path="url(#clip0_63_22659)">
<path d="M10.625 6C10.625 3.44561 8.55439 1.375 6 1.375C3.44561 1.375 1.375 3.44561 1.375 6C1.375 8.55439 3.44561 10.625 6 10.625C8.55439 10.625 10.625 8.55439 10.625 6ZM5.625 8.25V5.75C5.625 5.54289 5.79289 5.375 6 5.375C6.20711 5.375 6.375 5.54289 6.375 5.75V8.25C6.375 8.45711 6.20711 8.625 6 8.625C5.79289 8.625 5.625 8.45711 5.625 8.25ZM6.27734 4.00732C6.13802 4.16047 5.90077 4.17198 5.74756 4.03271C5.59432 3.89341 5.58337 3.65618 5.72266 3.50293L6.27734 4.00732ZM5.72754 3.49707C5.86687 3.34392 6.10411 3.33288 6.25732 3.47217C6.41046 3.61149 6.42199 3.84874 6.28271 4.00195L6.27734 4.00732L5.72266 3.50293L5.72754 3.49707ZM11.375 6C11.375 8.96861 8.96861 11.375 6 11.375C3.03139 11.375 0.625 8.96861 0.625 6C0.625 3.03139 3.03139 0.625 6 0.625C8.96861 0.625 11.375 3.03139 11.375 6Z" fill="#7F7F7F" style="fill:#7F7F7F;fill:color(display-p3 0.4986 0.4986 0.4986);fill-opacity:1;"/>
</g>
<defs>
<clipPath id="clip0_63_22659">
<rect width="12" height="12" fill="white" style="fill:white;fill-opacity:1;"/>
</clipPath>
</defs>
</svg>
