<svg width="16" height="16" viewBox="0 0 16 16" fill="none" xmlns="http://www.w3.org/2000/svg">
<path d="M2.16675 12.6667V8.66675C2.16675 8.3906 2.39061 8.16675 2.66675 8.16675C2.94289 8.16675 3.16675 8.3906 3.16675 8.66675V12.6667L3.17065 12.7494C3.18965 12.9401 3.27421 13.1193 3.41089 13.2559C3.56717 13.4122 3.77907 13.5001 4.00008 13.5001H12.0001C12.2211 13.5001 12.433 13.4122 12.5893 13.2559C12.7456 13.0997 12.8334 12.8878 12.8334 12.6667V8.66675C12.8334 8.3906 13.0573 8.16675 13.3334 8.16675C13.6096 8.16675 13.8334 8.3906 13.8334 8.66675V12.6667C13.8334 13.153 13.6401 13.6192 13.2963 13.963C12.9525 14.3068 12.4863 14.5001 12.0001 14.5001H4.00008C3.51385 14.5001 3.04767 14.3068 2.70386 13.963C2.36004 13.6192 2.16675 13.153 2.16675 12.6667ZM7.50008 10.0001V3.20711L6.02026 4.68693C5.825 4.88219 5.50849 4.88219 5.31323 4.68693C5.11797 4.49166 5.11797 4.17516 5.31323 3.9799L7.64657 1.64656L7.68433 1.61206C7.88071 1.45185 8.17053 1.46349 8.3536 1.64656L10.6869 3.9799C10.8822 4.17516 10.8822 4.49166 10.6869 4.68693C10.4917 4.88219 10.1752 4.88219 9.9799 4.68693L8.50008 3.20711V10.0001C8.50008 10.2762 8.27622 10.5001 8.00008 10.5001C7.72394 10.5001 7.50008 10.2762 7.50008 10.0001Z" fill="black" style="fill:black;fill-opacity:1;"/>
</svg>
