<svg width="16" height="16" viewBox="0 0 16 16" fill="none" xmlns="http://www.w3.org/2000/svg">
<g clip-path="url(#clip0_197_10117)">
<path d="M8.00016 1.33398C4.31816 1.33398 1.3335 4.31865 1.3335 8.00065C1.3335 11.6827 4.31816 14.6673 8.00016 14.6673C11.6822 14.6673 14.6668 11.6827 14.6668 8.00065C14.6668 4.31865 11.6822 1.33398 8.00016 1.33398Z" stroke="white" stroke-linecap="round" stroke-linejoin="round"/>
<path d="M5.3335 14.1133V9.33464L8.00016 4.66797L10.6668 9.33464V14.1133" stroke="white" stroke-linecap="round" stroke-linejoin="round"/>
<path d="M5.3335 9.33398C5.3335 9.33398 6.08483 10.0007 6.66683 10.0007C7.24883 10.0007 8.00016 9.33398 8.00016 9.33398C8.00016 9.33398 8.7515 10.0007 9.3335 10.0007C9.9155 10.0007 10.6668 9.33398 10.6668 9.33398" stroke="white" stroke-linecap="round" stroke-linejoin="round"/>
</g>
<defs>
<clipPath id="clip0_197_10117">
<rect width="16" height="16" fill="white"/>
</clipPath>
</defs>
</svg>
