<svg width="24" height="24" viewBox="0 0 24 24" fill="none" xmlns="http://www.w3.org/2000/svg">
<path d="M8.00036 14.5707L6.17736 12.8347C6.02501 12.6901 5.84503 12.5777 5.6482 12.5044C5.45137 12.431 5.24176 12.3982 5.03192 12.4078C4.82209 12.4174 4.61636 12.4693 4.42707 12.5604C4.23778 12.6514 4.06883 12.7798 3.93036 12.9377C3.67595 13.2288 3.53867 13.6039 3.54514 13.9904C3.55161 14.377 3.70136 14.7473 3.96536 15.0297L9.90736 21.3677C10.2864 21.7707 10.8134 21.9997 11.3664 21.9997H16.0004C18.4004 21.9997 20.0004 19.9997 20.0004 17.9997V9.42871" stroke="white" style="stroke:white;stroke-opacity:1;" stroke-width="1.5" stroke-linecap="round" stroke-linejoin="round"/>
<path d="M20 9.429C20 7.143 17 7.143 17 9.429V10V8.286C17 6 14 6 14 8.286V10V7.5C14 5.214 11 5.214 11 7.5V10V3.499C11 2.67 10.328 2 9.5 2C9.10218 2 8.72064 2.15804 8.43934 2.43934C8.15804 2.72064 8 3.10218 8 3.5V14.571" stroke="white" style="stroke:white;stroke-opacity:1;" stroke-width="1.5" stroke-linecap="round" stroke-linejoin="round"/>
</svg>
