<svg width="16" height="16" viewBox="0 0 16 16" fill="none" xmlns="http://www.w3.org/2000/svg">
<path d="M13.3335 8.33317C13.4219 8.33317 13.5067 8.29805 13.5692 8.23554C13.6317 8.17303 13.6668 8.08824 13.6668 7.99984C13.6668 7.91143 13.6317 7.82665 13.5692 7.76413C13.5067 7.70162 13.4219 7.6665 13.3335 7.6665C13.2451 7.6665 13.1603 7.70162 13.0978 7.76413C13.0353 7.82665 13.0002 7.91143 13.0002 7.99984C13.0002 8.08824 13.0353 8.17303 13.0978 8.23554C13.1603 8.29805 13.2451 8.33317 13.3335 8.33317ZM8.00016 8.33317C8.08857 8.33317 8.17335 8.29805 8.23587 8.23554C8.29838 8.17303 8.3335 8.08824 8.3335 7.99984C8.3335 7.91143 8.29838 7.82665 8.23587 7.76413C8.17335 7.70162 8.08857 7.6665 8.00016 7.6665C7.91176 7.6665 7.82697 7.70162 7.76446 7.76413C7.70195 7.82665 7.66683 7.91143 7.66683 7.99984C7.66683 8.08824 7.70195 8.17303 7.76446 8.23554C7.82697 8.29805 7.91176 8.33317 8.00016 8.33317ZM2.66683 8.33317C2.75523 8.33317 2.84002 8.29805 2.90253 8.23554C2.96504 8.17303 3.00016 8.08824 3.00016 7.99984C3.00016 7.91143 2.96504 7.82665 2.90253 7.76413C2.84002 7.70162 2.75523 7.6665 2.66683 7.6665C2.57842 7.6665 2.49364 7.70162 2.43113 7.76413C2.36862 7.82665 2.3335 7.91143 2.3335 7.99984C2.3335 8.08824 2.36862 8.17303 2.43113 8.23554C2.49364 8.29805 2.57842 8.33317 2.66683 8.33317Z" fill="black" stroke="black" stroke-width="1.5" stroke-linecap="round" stroke-linejoin="round"/>
</svg>
