<svg width="24" height="24" viewBox="0 0 24 24" fill="none" xmlns="http://www.w3.org/2000/svg">
<path d="M16.7143 6.22746C17.0072 5.93471 17.482 5.93457 17.7748 6.22746C18.0675 6.52032 18.0675 6.99516 17.7748 7.288L13.061 11.9999L17.7748 16.7138L17.8256 16.7704C18.066 17.065 18.0495 17.4997 17.7748 17.7743C17.5002 18.049 17.0655 18.0655 16.7709 17.8251L16.7143 17.7743L12.0014 13.0614L7.28849 17.7743C6.99564 18.067 6.5208 18.067 6.22795 17.7743C5.93511 17.4815 5.93522 17.0067 6.22795 16.7138L10.9399 12.0009L6.22795 7.288C5.9351 6.9951 5.93507 6.52033 6.22795 6.22746C6.52085 5.93461 6.99562 5.93459 7.28849 6.22746L12.0004 10.9403L16.7143 6.22746Z" fill="black"/>
</svg>
