<svg width="12" height="12" viewBox="0 0 12 12" fill="none" xmlns="http://www.w3.org/2000/svg">
<path fill-rule="evenodd" clip-rule="evenodd" d="M6 0.625C3.0315 0.625 0.625 3.0315 0.625 6C0.625 8.9685 3.0315 11.375 6 11.375C8.9685 11.375 11.375 8.9685 11.375 6C11.375 3.0315 8.9685 0.625 6 0.625ZM4.851 4.3205C4.78031 4.25216 4.6856 4.21431 4.58727 4.21512C4.48895 4.21593 4.39488 4.25532 4.32531 4.32482C4.25575 4.39431 4.21627 4.48835 4.21537 4.58667C4.21447 4.685 4.25222 4.77974 4.3205 4.8505L5.4695 6L4.3205 7.149C4.25426 7.22009 4.2182 7.31411 4.21991 7.41126C4.22163 7.50841 4.26098 7.6011 4.32969 7.66981C4.3984 7.73852 4.49109 7.77787 4.58824 7.77959C4.68539 7.7813 4.77941 7.74524 4.8505 7.679L6 6.531L7.149 7.68C7.22009 7.74624 7.31411 7.7823 7.41126 7.78059C7.50841 7.77887 7.6011 7.73952 7.66981 7.67081C7.73852 7.6021 7.77787 7.50941 7.77959 7.41226C7.7813 7.31511 7.74524 7.22109 7.679 7.15L6.53 6L7.679 4.851C7.71584 4.81667 7.74539 4.77527 7.76589 4.72927C7.78639 4.68327 7.79741 4.63361 7.7983 4.58326C7.79918 4.53291 7.78992 4.4829 7.77106 4.4362C7.7522 4.38951 7.72413 4.34709 7.68852 4.31148C7.65291 4.27587 7.61049 4.2478 7.5638 4.22894C7.5171 4.21008 7.46709 4.20082 7.41674 4.2017C7.36639 4.20259 7.31673 4.21361 7.27073 4.23411C7.22473 4.25461 7.18333 4.28416 7.149 4.321L6 5.469L4.851 4.3205Z" fill="#9B9B9B"/>
</svg>
