<svg width="16" height="16" viewBox="0 0 16 16" fill="none" xmlns="http://www.w3.org/2000/svg">
<path d="M6.27245 1.72493L6.67805 0.833659H10.7627L10.8525 0.869466L13.8962 2.08757C14.0819 2.16185 14.2378 2.29577 14.3389 2.46842C14.4399 2.64119 14.4804 2.84293 14.4541 3.04134L13.3369 11.4248C13.2724 11.9082 13.0968 12.37 12.8252 12.7738C12.5534 13.1779 12.192 13.5138 11.7692 13.7555L11.5557 13.8779C10.4728 14.4967 9.24689 14.8219 7.99967 14.8219C6.75245 14.8219 5.52656 14.4967 4.44368 13.8779L4.23079 13.7555C3.80784 13.5138 3.44602 13.178 3.17415 12.7738C2.90229 12.3695 2.72748 11.9077 2.66308 11.4248L1.53092 2.93001L1.5231 2.8265C1.52117 2.72329 1.53747 2.62011 1.57063 2.52181C1.61486 2.39078 1.68842 2.27138 1.78612 2.1735L2.97948 0.980143L3.19368 0.766602L6.27245 1.72493ZM7.01659 2.50358L6.48209 4.46517L5.5179 4.20215L5.93586 2.66699L3.47297 1.90072L2.52831 2.84538L3.65461 11.2926C3.69868 11.623 3.81821 11.9392 4.00422 12.2158C4.19023 12.4923 4.43756 12.7223 4.72688 12.8877L4.94042 13.0094C5.8722 13.5419 6.92648 13.8219 7.99967 13.8219C9.07277 13.8219 10.1272 13.5418 11.0589 13.0094L11.2725 12.8877L11.3792 12.8226C11.6229 12.664 11.8324 12.4577 11.9951 12.2158C12.1814 11.9388 12.302 11.6225 12.346 11.2926L13.4528 2.98665L10.945 1.9834L9.79784 4.85254L8.86881 4.48145L9.92805 1.83366H7.32193L7.01659 2.50358Z" fill="#FF4242" style="fill:#FF4242;fill:color(display-p3 1.0000 0.2600 0.2600);fill-opacity:1;"/>
<path d="M14.36 3.68066C14.0792 3.97201 13.6878 4.19859 13.2539 4.37858C12.8148 4.56074 12.3008 4.70789 11.7448 4.82324C10.6324 5.054 9.31113 5.16699 8.00002 5.16699C6.6889 5.16699 5.36767 5.054 4.25523 4.82324C3.6992 4.70789 3.18521 4.56074 2.74611 4.37858C2.31228 4.19859 1.92085 3.97201 1.63999 3.68066L2.36004 2.98665C2.50769 3.1398 2.75926 3.30203 3.12892 3.4554C3.49319 3.60653 3.94323 3.73721 4.45835 3.84408C5.48878 4.05782 6.73963 4.16699 8.00002 4.16699C9.2604 4.16699 10.5113 4.05782 11.5417 3.84408C12.0568 3.73721 12.5068 3.60653 12.8711 3.4554C13.2408 3.30203 13.4923 3.1398 13.64 2.98665L14.36 3.68066Z" fill="#FF4242" style="fill:#FF4242;fill:color(display-p3 1.0000 0.2600 0.2600);fill-opacity:1;"/>
</svg>
