<svg width="16" height="16" viewBox="0 0 16 16" fill="none" xmlns="http://www.w3.org/2000/svg">
<path d="M12.9799 3.64662C13.1751 3.45135 13.4917 3.45135 13.6869 3.64662C13.8822 3.84188 13.8822 4.15838 13.6869 4.35365L8.35358 9.68698C8.15832 9.88224 7.84182 9.88224 7.64655 9.68698L5.64655 7.68698C5.45129 7.49172 5.45129 7.17521 5.64655 6.97995C5.82962 6.79688 6.11944 6.78524 6.31582 6.94544L6.35358 6.97995L8.00007 8.62643L12.9799 3.64662Z" fill="#00BF40"/>
<path d="M6.34447 2.40478C7.45844 2.07508 8.6438 2.08621 9.74877 2.43343L9.96882 2.50765L10.0163 2.52718C10.2449 2.63645 10.3582 2.90336 10.2709 3.14697C10.1835 3.39064 9.92636 3.52435 9.68041 3.46338L9.63158 3.44905L9.44929 3.38721C8.53369 3.09945 7.55139 3.09057 6.62832 3.36377C5.64373 3.65521 4.77724 4.25268 4.15502 5.0695C3.53279 5.88636 3.18682 6.88072 3.16739 7.90739C3.14803 8.93393 3.45615 9.94006 4.04694 10.7798C4.63782 11.6196 5.48096 12.2495 6.45385 12.578C7.42667 12.9064 8.47879 12.9163 9.45775 12.6066C10.4368 12.2969 11.2922 11.6836 11.8992 10.8553C12.506 10.027 12.8331 9.02665 12.8334 7.99984C12.8336 7.72381 13.0574 7.49983 13.3334 7.49984C13.6095 7.49992 13.8335 7.72434 13.8334 8.00049L13.8288 8.23226C13.7824 9.38966 13.3925 10.5093 12.7058 11.4464C11.9734 12.4461 10.9414 13.1865 9.75983 13.5604C8.57832 13.9342 7.3083 13.9216 6.13418 13.5252C4.96005 13.1288 3.94235 12.3688 3.22924 11.3553C2.51611 10.3417 2.14459 9.12694 2.16804 7.88786C2.19155 6.64899 2.60866 5.44976 3.35944 4.46403C4.11041 3.47816 5.15613 2.75653 6.34447 2.40478Z" fill="#00BF40"/>
</svg>
