<svg width="24" height="24" viewBox="0 0 24 24" fill="none" xmlns="http://www.w3.org/2000/svg">
<path d="M19.9999 10.25C20.414 10.25 20.7497 10.586 20.7499 11V19C20.7498 19.7292 20.4599 20.4297 19.9443 20.9453C19.4286 21.4607 18.729 21.75 17.9999 21.75H5.99994C5.27085 21.7499 4.57124 21.4607 4.0556 20.9453C3.53999 20.4297 3.25007 19.7292 3.24994 19V11C3.25019 10.5861 3.58598 10.2501 3.99994 10.25C4.414 10.25 4.74969 10.586 4.74994 11V19C4.75007 19.3313 4.88184 19.6505 5.11615 19.8848C5.35048 20.1189 5.66868 20.2499 5.99994 20.25H17.9999C18.3312 20.25 18.6494 20.1188 18.8837 19.8848C19.118 19.6505 19.2498 19.3313 19.2499 19V11C19.2502 10.5861 19.586 10.2501 19.9999 10.25Z" fill="#888888"/>
<path d="M11.9999 2.32031C12.2092 2.32031 12.4153 2.37044 12.6025 2.46387L22.3349 7.33008C22.7054 7.51533 22.8561 7.96546 22.6708 8.33594C22.4855 8.70599 22.0353 8.85588 21.665 8.6709L11.9999 3.83887L2.3349 8.6709C1.96463 8.85565 1.51429 8.706 1.32904 8.33594C1.14386 7.96557 1.29476 7.51543 1.66498 7.33008L11.3964 2.46387C11.5836 2.37048 11.7908 2.32034 11.9999 2.32031Z" fill="#888888"/>
</svg>
