<svg width="24" height="24" viewBox="0 0 24 24" fill="none" xmlns="http://www.w3.org/2000/svg">
<path d="M9.85282 14.6339L3.65182 10.6879C3.3681 10.5072 3.13453 10.2579 2.97272 9.96301C2.8109 9.66814 2.72607 9.33721 2.72607 9.00086C2.72607 8.6645 2.8109 8.33358 2.97272 8.0387C3.13453 7.74383 3.3681 7.49453 3.65182 7.31386L9.85182 3.36786C10.4937 2.95924 11.2389 2.74219 11.9998 2.74219C12.7608 2.74219 13.5059 2.95924 14.1478 3.36786L20.3478 7.31386C20.6315 7.49453 20.8651 7.74383 21.0269 8.0387C21.1887 8.33358 21.2736 8.6645 21.2736 9.00086C21.2736 9.33721 21.1887 9.66814 21.0269 9.96301C20.8651 10.2579 20.6315 10.5072 20.3478 10.6879L14.1478 14.6339C13.5059 15.0425 12.7608 15.2595 11.9998 15.2595C11.2389 15.2595 10.4947 15.0425 9.85282 14.6339Z" stroke="white" stroke-width="1.5"/>
<path d="M18.2858 12L20.3488 13.313C20.6325 13.4937 20.8661 13.743 21.0279 14.0378C21.1897 14.3327 21.2746 14.6636 21.2746 15C21.2746 15.3364 21.1897 15.6673 21.0279 15.9622C20.8661 16.257 20.6325 16.5063 20.3488 16.687L14.1478 20.633C13.5059 21.0416 12.7608 21.2587 11.9998 21.2587C11.2389 21.2587 10.4937 21.0416 9.85182 20.633L3.65182 16.687C3.3681 16.5063 3.13453 16.257 2.97272 15.9622C2.8109 15.6673 2.72607 15.3364 2.72607 15C2.72607 14.6636 2.8109 14.3327 2.97272 14.0378C3.13453 13.743 3.3681 13.4937 3.65182 13.313L5.71382 12" stroke="white" stroke-width="1.5"/>
</svg>
