<svg width="16" height="16" viewBox="0 0 16 16" fill="none" xmlns="http://www.w3.org/2000/svg">
<path fill-rule="evenodd" clip-rule="evenodd" d="M8 2.628C8.78082 1.90455 9.80554 1.5018 10.87 1.5C12.0207 1.5 13.1193 1.97333 13.9233 2.80667C14.7234 3.64067 15.169 4.7523 15.1667 5.908C15.169 7.0637 14.7234 8.17533 13.9233 9.00933C13.3927 9.55933 12.8627 10.1227 12.33 10.688C11.2473 11.8373 10.1533 12.9993 9.01666 14.0933L9.01466 14.096C8.73243 14.3633 8.35614 14.5084 7.96754 14.4997C7.57894 14.4911 7.20944 14.3295 6.93933 14.05L2.076 9.00933C0.419329 7.29133 0.419329 4.52467 2.076 2.80733C2.84173 2.00494 3.89258 1.53627 5.00122 1.50271C6.10985 1.46915 7.18712 1.87339 8 2.628Z" fill="white" style="fill:white;fill-opacity:1;"/>
</svg>
