<svg width="24" height="24" viewBox="0 0 24 24" fill="none" xmlns="http://www.w3.org/2000/svg">
<path d="M19 15.25C19.4142 15.25 19.75 15.5858 19.75 16V18.25H22C22.4142 18.25 22.75 18.5858 22.75 19C22.75 19.4142 22.4142 19.75 22 19.75H19.75V22C19.75 22.4142 19.4142 22.75 19 22.75C18.5858 22.75 18.25 22.4142 18.25 22V19.75H16C15.5858 19.75 15.25 19.4142 15.25 19C15.25 18.5858 15.5858 18.25 16 18.25H18.25V16C18.25 15.5858 18.5858 15.25 19 15.25ZM20.4004 2.25C20.7583 2.2501 21.1014 2.39243 21.3545 2.64551C21.6076 2.89859 21.7499 3.24171 21.75 3.59961V13C21.75 13.4142 21.4142 13.75 21 13.75C20.5858 13.75 20.25 13.4142 20.25 13V3.75H3.75V20.25H13C13.4142 20.25 13.75 20.5858 13.75 21C13.75 21.4142 13.4142 21.75 13 21.75H3.59961C3.24171 21.7499 2.89859 21.6076 2.64551 21.3545C2.39243 21.1014 2.2501 20.7583 2.25 20.4004V3.59961C2.2501 3.24171 2.39243 2.89859 2.64551 2.64551C2.89859 2.39243 3.24171 2.2501 3.59961 2.25H20.4004ZM9.77246 7.69434C9.94705 7.71682 10.1157 7.77439 10.2695 7.8623L10.2705 7.86133L15.459 10.8271H15.46C15.6149 10.9157 15.75 11.0345 15.8584 11.1748L15.958 11.3223L16.0371 11.4814C16.1052 11.6451 16.1406 11.8216 16.1406 12C16.1406 12.2379 16.0774 12.4719 15.958 12.6777C15.8385 12.8835 15.6666 13.0538 15.46 13.1719L10.2705 16.1377C10.0652 16.2552 9.83228 16.3171 9.5957 16.3164C9.35932 16.3157 9.12735 16.2524 8.92285 16.1338C8.71824 16.0151 8.54771 15.8447 8.42969 15.6396C8.34119 15.4859 8.28465 15.3164 8.26172 15.1416L8.25 14.9658V9.03223C8.25032 8.79588 8.31249 8.56308 8.43066 8.3584L8.5293 8.21191C8.6365 8.07224 8.77047 7.95404 8.92383 7.86523L9.08203 7.78711C9.24461 7.71956 9.41949 7.68405 9.59668 7.68359L9.77246 7.69434ZM9.75 14.707L14.4883 12L9.75 9.29199V14.707Z" fill="#8B8B8B"/>
</svg>
