<svg width="24" height="24" viewBox="0 0 24 24" fill="none" xmlns="http://www.w3.org/2000/svg">
<path d="M21.75 13C21.75 13.4142 21.4142 13.75 21 13.75C20.5858 13.75 20.25 13.4142 20.25 13V3.75H3.75001V20.25H13C13.4142 20.25 13.75 20.5858 13.75 21C13.75 21.4142 13.4142 21.75 13 21.75H3.59962C3.24172 21.7499 2.8986 21.6076 2.64552 21.3545C2.39244 21.1014 2.25012 20.7583 2.25001 20.4004V3.59961C2.25012 3.24171 2.39244 2.89859 2.64552 2.64551C2.8986 2.39243 3.24172 2.2501 3.59962 2.25H20.4004C20.7583 2.2501 21.1014 2.39243 21.3545 2.64551C21.6076 2.89859 21.7499 3.24171 21.75 3.59961V13Z" fill="#70737C" fill-opacity="0.16" style="fill:#70737C;fill:color(display-p3 0.4392 0.4510 0.4863);fill-opacity:0.16;"/>
<path d="M18.25 22V19.75H16C15.5858 19.75 15.25 19.4142 15.25 19C15.25 18.5858 15.5858 18.25 16 18.25H18.25V16C18.25 15.5858 18.5858 15.25 19 15.25C19.4142 15.25 19.75 15.5858 19.75 16V18.25H22C22.4142 18.25 22.75 18.5858 22.75 19C22.75 19.4142 22.4142 19.75 22 19.75H19.75V22C19.75 22.4142 19.4142 22.75 19 22.75C18.5858 22.75 18.25 22.4142 18.25 22ZM9.70412 12.3105C9.89799 12.2275 10.1185 12.2301 10.3106 12.3174L15.8106 14.8174C16.1875 14.9889 16.354 15.4335 16.1826 15.8105C16.0112 16.1875 15.5665 16.354 15.1895 16.1826L9.99122 13.8193L3.29591 16.6895C2.91531 16.8526 2.47385 16.6764 2.31056 16.2959C2.14744 15.9153 2.32364 15.4738 2.70412 15.3105L9.70412 12.3105ZM17.25 8C17.25 7.66848 17.1182 7.35063 16.8838 7.11621C16.6788 6.9112 16.41 6.78436 16.124 6.75586L16 6.75C15.6685 6.75 15.3506 6.88179 15.1162 7.11621C14.8818 7.35063 14.75 7.66848 14.75 8C14.75 8.33152 14.8818 8.64937 15.1162 8.88379C15.3506 9.11821 15.6685 9.25 16 9.25C16.3315 9.25 16.6494 9.11821 16.8838 8.88379C17.1182 8.64937 17.25 8.33152 17.25 8ZM18.75 8C18.75 8.72935 18.4601 9.42861 17.9443 9.94434C17.4286 10.4601 16.7294 10.75 16 10.75C15.2707 10.75 14.5714 10.4601 14.0557 9.94434C13.54 9.42861 13.25 8.72935 13.25 8C13.25 7.27065 13.54 6.57139 14.0557 6.05566C14.5714 5.53994 15.2707 5.25 16 5.25L16.2715 5.26367C16.9011 5.32612 17.493 5.60433 17.9443 6.05566C18.4601 6.57139 18.75 7.27065 18.75 8Z" fill="#70737C" fill-opacity="0.16" style="fill:#70737C;fill:color(display-p3 0.4392 0.4510 0.4863);fill-opacity:0.16;"/>
</svg>
