<svg width="16" height="16" viewBox="0 0 16 16" fill="none" xmlns="http://www.w3.org/2000/svg">
<path d="M10.8698 1.5C11.9492 1.5 12.9815 1.91576 13.7689 2.6556L13.9232 2.80794L13.9238 2.80859C14.7228 3.64199 15.1685 4.75242 15.1667 5.9069L15.1614 6.12305C15.1117 7.19984 14.6742 8.22532 13.9251 9.00716L13.9238 9.00846C12.3142 10.6774 10.7127 12.4609 9.01757 14.0938L9.01431 14.0964C8.42835 14.651 7.50039 14.6318 6.93944 14.0508L2.07616 9.00911C0.419365 7.29146 0.419183 4.52439 2.07616 2.80729C2.46982 2.39477 2.94329 2.06638 3.46744 1.8418C3.9925 1.61686 4.55769 1.50069 5.1289 1.50065C5.70024 1.50065 6.26584 1.6168 6.79101 1.8418C7.23662 2.03273 7.64495 2.29933 7.99934 2.62826C8.35401 2.29965 8.76277 2.03346 9.20832 1.84245C9.73312 1.61749 10.2981 1.50097 10.8691 1.5H10.8698ZM10.8698 2.5C10.4339 2.50086 10.0028 2.58998 9.6022 2.76172C9.20133 2.93358 8.83901 3.1846 8.53775 3.5L8.5358 3.50195L8.35937 3.6849C8.26528 3.78218 8.13533 3.83711 7.99999 3.83724C7.86479 3.83728 7.73546 3.78254 7.64127 3.68555L7.46353 3.50326L7.46028 3.49935C7.15959 3.1838 6.79778 2.93273 6.39713 2.76107C5.99641 2.58939 5.56484 2.50065 5.1289 2.50065C4.69308 2.50069 4.26192 2.58946 3.86132 2.76107C3.46058 2.93277 3.09825 3.1837 2.79752 3.49935L2.79556 3.50195C1.51261 4.83153 1.51238 6.98479 2.79556 8.3151L7.65884 13.3561L7.73111 13.4173C7.91009 13.5399 8.15842 13.5262 8.32356 13.3724C10.0029 11.7547 11.5589 10.02 13.2038 8.31445C13.8235 7.66725 14.1687 6.80494 14.1667 5.90885V5.9069C14.1685 5.01067 13.8231 4.14842 13.2031 3.5013L13.0846 3.38411C12.4795 2.81538 11.6903 2.5 10.8698 2.5Z" fill="black"/>
</svg>
