<svg width="28" height="28" viewBox="0 0 28 28" fill="none" xmlns="http://www.w3.org/2000/svg">
<rect width="28" height="28" rx="14" fill="#F7F7F7" style="fill:#F7F7F7;fill:color(display-p3 0.9686 0.9686 0.9686);fill-opacity:1;"/>
<path d="M14.7489 19.7063C14.8976 19.5009 15.1806 19.4377 15.4045 19.5676C15.6432 19.7062 15.7245 20.0118 15.5862 20.2506L15.5224 20.3528C15.3664 20.5852 15.1591 20.7796 14.9156 20.9198C14.6373 21.0801 14.3214 21.164 14.0002 21.164C13.6791 21.164 13.3632 21.0801 13.0849 20.9198C12.8066 20.7595 12.5754 20.5284 12.4143 20.2506C12.2759 20.0118 12.3573 19.7062 12.5959 19.5676C12.8199 19.4377 13.1029 19.5009 13.2515 19.7063L13.2795 19.7493L13.3401 19.8398C13.4065 19.9259 13.4894 19.9987 13.5842 20.0533C13.7107 20.1261 13.8543 20.164 14.0002 20.164C14.1462 20.164 14.2898 20.1261 14.4163 20.0533C14.5427 19.9805 14.6477 19.8754 14.7209 19.7493L14.7489 19.7063ZM17.5002 11.6002C17.5002 10.5914 17.1245 9.62914 16.4644 8.92505C15.8053 8.222 14.9168 7.83325 14.0002 7.83325C13.0836 7.83325 12.1958 8.22137 11.536 8.92505C10.876 9.62914 10.5002 10.5914 10.5002 11.6002C10.5002 14.1575 9.98612 15.8374 9.44555 16.8945C9.327 17.1263 9.20687 17.3268 9.09203 17.4999H18.9084C18.7936 17.3268 18.6735 17.1263 18.5549 16.8945C18.0144 15.8374 17.5003 14.1575 17.5002 11.6002ZM18.5002 11.6002C18.5003 14.0204 18.9862 15.5404 19.4455 16.4387C19.6757 16.8887 19.9012 17.1874 20.0614 17.3678C20.1416 17.458 20.2058 17.5192 20.2463 17.5553C20.2665 17.5732 20.2811 17.585 20.2886 17.5911C20.2896 17.5918 20.2905 17.5925 20.2913 17.593H20.2906C20.4674 17.7192 20.5429 17.9453 20.4768 18.1523C20.4106 18.3594 20.2177 18.4999 20.0002 18.4999H8.00024C7.78274 18.4999 7.5899 18.3594 7.52367 18.1523C7.45759 17.9453 7.53307 17.7192 7.70987 17.593H7.70922C7.70995 17.5925 7.71089 17.5918 7.71183 17.5911C7.7194 17.585 7.73393 17.5732 7.75414 17.5553C7.79468 17.5192 7.8589 17.458 7.93904 17.3678C8.09923 17.1874 8.3248 16.8887 8.55492 16.4387C9.01429 15.5404 9.5002 14.0204 9.50024 11.6002C9.50024 10.3463 9.967 9.13735 10.8069 8.24146C11.6485 7.34381 12.7969 6.83325 14.0002 6.83325C15.2037 6.83325 16.3527 7.3445 17.1936 8.24146C18.0335 9.13735 18.5002 10.3463 18.5002 11.6002Z" fill="black" style="fill:black;fill-opacity:1;"/>
</svg>
