<svg width="16" height="16" viewBox="0 0 16 16" fill="none" xmlns="http://www.w3.org/2000/svg">
<path d="M14 11.5C14.2761 11.5 14.5 11.7239 14.5 12C14.5 12.2761 14.2761 12.5 14 12.5H2C1.72386 12.5 1.5 12.2761 1.5 12C1.5 11.7239 1.72386 11.5 2 11.5H14ZM14 8.83333C14.2761 8.83333 14.5 9.05719 14.5 9.33333C14.5 9.60948 14.2761 9.83333 14 9.83333H2C1.72386 9.83333 1.5 9.60948 1.5 9.33333C1.5 9.05719 1.72386 8.83333 2 8.83333H14ZM14 6.16667C14.2761 6.16667 14.5 6.39052 14.5 6.66667C14.5 6.94281 14.2761 7.16667 14 7.16667H2C1.72386 7.16667 1.5 6.94281 1.5 6.66667C1.5 6.39052 1.72386 6.16667 2 6.16667H14ZM14 3.5C14.2761 3.5 14.5 3.72386 14.5 4C14.5 4.27614 14.2761 4.5 14 4.5H2C1.72386 4.5 1.5 4.27614 1.5 4C1.5 3.72386 1.72386 3.5 2 3.5H14Z" fill="black"/>
</svg>
