<svg width="16" height="16" viewBox="0 0 16 16" fill="none" xmlns="http://www.w3.org/2000/svg">
<path d="M12.8411 5.91309C12.889 5.64114 13.148 5.45967 13.4199 5.50749C13.6919 5.55533 13.8733 5.81431 13.8255 6.08626L12.4961 13.6501C12.4215 14.0748 12.1994 14.46 11.8691 14.7373C11.5802 14.9799 11.2242 15.1263 10.8509 15.1592L10.6901 15.1663H5.3099C4.87869 15.1663 4.4611 15.0146 4.13086 14.7373C3.80058 14.46 3.57851 14.0748 3.50391 13.6501L2.17448 6.08626L2.16797 6.03548C2.14951 5.78274 2.32512 5.55234 2.58008 5.50749C2.85203 5.45967 3.11101 5.64114 3.15885 5.91309L4.48893 13.4769C4.52284 13.6699 4.624 13.845 4.77409 13.971C4.9242 14.0971 5.1139 14.1663 5.3099 14.1663H10.6901C10.8861 14.1663 11.0758 14.0971 11.2259 13.971C11.376 13.845 11.4772 13.6699 11.5111 13.4769L12.8411 5.91309ZM9.75 2.66634C9.75 2.44533 9.66214 2.23343 9.50586 2.07715C9.34958 1.92087 9.13768 1.83301 8.91667 1.83301H7.08333C6.86232 1.83301 6.65042 1.92087 6.49414 2.07715C6.33786 2.23343 6.25 2.44533 6.25 2.66634V3.49967H9.75V2.66634ZM10.75 3.49967H14C14.2761 3.49967 14.5 3.72353 14.5 3.99967C14.5 4.27582 14.2761 4.49967 14 4.49967H2C1.72386 4.49967 1.5 4.27582 1.5 3.99967C1.5 3.72353 1.72386 3.49967 2 3.49967H5.25V2.66634C5.25 2.18011 5.44329 1.71393 5.78711 1.37012C6.13093 1.0263 6.5971 0.833008 7.08333 0.833008H8.91667C9.4029 0.833008 9.86907 1.0263 10.2129 1.37012C10.5567 1.71393 10.75 2.18011 10.75 2.66634V3.49967Z" fill="#FF4242" style="fill:#FF4242;fill:color(display-p3 1.0000 0.2600 0.2600);fill-opacity:1;"/>
</svg>
