<svg width="16" height="16" viewBox="0 0 16 16" fill="none" xmlns="http://www.w3.org/2000/svg">
<path d="M8.74869 13.7064C8.89732 13.501 9.18031 13.4378 9.40429 13.5677C9.64296 13.7062 9.72428 14.0118 9.58593 14.2506L9.52213 14.3528C9.36611 14.5852 9.15882 14.7796 8.91536 14.9199C8.63704 15.0802 8.32117 15.164 7.99999 15.164C7.67881 15.164 7.36294 15.0802 7.08463 14.9199C6.80636 14.7596 6.57519 14.5284 6.41406 14.2506C6.2757 14.0118 6.35702 13.7062 6.5957 13.5677C6.81968 13.4378 7.10266 13.501 7.25129 13.7064L7.27929 13.7493L7.33984 13.8398C7.40623 13.926 7.48913 13.9987 7.58398 14.0534C7.71047 14.1262 7.85403 14.164 7.99999 14.164C8.14596 14.164 8.28952 14.1262 8.41601 14.0534C8.54244 13.9805 8.64745 13.8755 8.7207 13.7493L8.74869 13.7064ZM11.5 5.60024C11.5 4.59146 11.1242 3.6292 10.4642 2.92511C9.80508 2.22206 8.91657 1.83331 7.99999 1.83331C7.08336 1.83331 6.19554 2.22143 5.5358 2.92511C4.87574 3.6292 4.49999 4.59146 4.49999 5.60024C4.49996 8.15761 3.98588 9.83743 3.44531 10.8945C3.32676 11.1263 3.20663 11.3269 3.09179 11.5H12.9082C12.7934 11.3269 12.6732 11.1263 12.5547 10.8945C12.0141 9.83743 11.5 8.15761 11.5 5.60024ZM12.5 5.60024C12.5 8.02041 12.9859 9.54041 13.4453 10.4388C13.6754 10.8888 13.901 11.1874 14.0612 11.3678C14.1413 11.458 14.2056 11.5193 14.2461 11.5553C14.2663 11.5733 14.2808 11.5851 14.2884 11.5911C14.2893 11.5919 14.2903 11.5925 14.291 11.5931H14.2904C14.4672 11.7192 14.5426 11.9453 14.4766 12.1523C14.4103 12.3595 14.2175 12.5 14 12.5H1.99999C1.7825 12.5 1.58965 12.3595 1.52343 12.1523C1.45735 11.9453 1.53282 11.7192 1.70963 11.5931H1.70898C1.7097 11.5925 1.71065 11.5919 1.71158 11.5911C1.71916 11.5851 1.73368 11.5733 1.7539 11.5553C1.79443 11.5193 1.85865 11.458 1.9388 11.3678C2.09899 11.1874 2.32455 10.8888 2.55468 10.4388C3.01405 9.54041 3.49996 8.02041 3.49999 5.60024C3.49999 4.3464 3.96676 3.13741 4.80663 2.24152C5.64823 1.34387 6.79662 0.833313 7.99999 0.833313C9.20342 0.833313 10.3525 1.34456 11.1934 2.24152C12.0332 3.13741 12.5 4.3464 12.5 5.60024Z" fill="black"/>
</svg>
