<svg width="24" height="24" viewBox="0 0 24 24" fill="none" xmlns="http://www.w3.org/2000/svg">
<path d="M12 17.25C12.4142 17.25 12.75 17.5858 12.75 18V22C12.75 22.4142 12.4142 22.75 12 22.75C11.5858 22.75 11.25 22.4142 11.25 22V18C11.25 17.5858 11.5858 17.25 12 17.25Z" fill="#8B8B8B"/>
<path d="M7.22656 15.7129C7.51946 15.42 7.99422 15.42 8.28711 15.7129C8.58 16.0058 8.58 16.4805 8.28711 16.7734L5.45996 19.6006C5.16704 19.8932 4.6922 19.8934 4.39941 19.6006C4.10663 19.3078 4.10683 18.833 4.39941 18.54L7.22656 15.7129Z" fill="#8B8B8B"/>
<path d="M15.7129 15.7129C15.9875 15.4382 16.4222 15.4207 16.7168 15.6611L16.7734 15.7129L19.6016 18.541L19.6523 18.5977C19.8928 18.8922 19.8762 19.3269 19.6016 19.6016C19.3269 19.8762 18.8922 19.8928 18.5977 19.6523L18.541 19.6016L15.7129 16.7734L15.6611 16.7168C15.4207 16.4222 15.4382 15.9875 15.7129 15.7129Z" fill="#8B8B8B"/>
<path d="M6 11.25C6.41421 11.25 6.75 11.5858 6.75 12C6.75 12.4142 6.41421 12.75 6 12.75H2C1.58579 12.75 1.25 12.4142 1.25 12C1.25 11.5858 1.58579 11.25 2 11.25H6Z" fill="#8B8B8B"/>
<path d="M22 11.25C22.4142 11.25 22.75 11.5858 22.75 12C22.75 12.4142 22.4142 12.75 22 12.75H18C17.5858 12.75 17.25 12.4142 17.25 12C17.25 11.5858 17.5858 11.25 18 11.25H22Z" fill="#8B8B8B"/>
<path d="M4.39844 4.39844C4.69123 4.10564 5.16607 4.10583 5.45898 4.39844L8.28711 7.22656C8.58 7.51946 8.58 7.99422 8.28711 8.28711C7.99422 8.58 7.51946 8.58 7.22656 8.28711L4.39844 5.45898C4.10583 5.16607 4.10564 4.69123 4.39844 4.39844Z" fill="#8B8B8B"/>
<path d="M18.541 4.39844C18.8339 4.10583 19.3088 4.10564 19.6016 4.39844C19.8944 4.69123 19.8942 5.16607 19.6016 5.45898L16.7734 8.28711C16.4805 8.58 16.0058 8.58 15.7129 8.28711C15.42 7.99422 15.42 7.51946 15.7129 7.22656L18.541 4.39844Z" fill="#8B8B8B"/>
<path d="M12 1.25C12.4142 1.25 12.75 1.58579 12.75 2V6C12.75 6.41421 12.4142 6.75 12 6.75C11.5858 6.75 11.25 6.41421 11.25 6V2C11.25 1.58579 11.5858 1.25 12 1.25Z" fill="#8B8B8B"/>
</svg>
