<svg width="16" height="16" viewBox="0 0 16 16" fill="none" xmlns="http://www.w3.org/2000/svg">
<path d="M13.3333 4.16598C13.6095 4.16598 13.8333 4.38984 13.8333 4.66598C13.8333 4.94212 13.6095 5.16598 13.3333 5.16598L3.8737 5.16598L5.02019 6.31246C5.21545 6.50772 5.21545 6.82423 5.02019 7.01949C4.82492 7.21476 4.50842 7.21476 4.31316 7.01949L2.31316 5.01949C2.11789 4.82423 2.11789 4.50772 2.31316 4.31246L4.31316 2.31246C4.50842 2.1172 4.82492 2.1172 5.02019 2.31246C5.21545 2.50772 5.21545 2.82423 5.02019 3.01949L3.8737 4.16598L13.3333 4.16598ZM2.66667 10.8326H12.1263L10.9798 9.68616C10.7846 9.4909 10.7846 9.17439 10.9798 8.97913C11.1751 8.78387 11.4916 8.78387 11.6869 8.97913L13.6869 10.9791L13.7214 11.0169C13.8816 11.2133 13.8699 11.5031 13.6869 11.6862L11.6869 13.6862C11.4916 13.8814 11.1751 13.8814 10.9798 13.6862C10.7846 13.4909 10.7846 13.1744 10.9798 12.9791L12.1263 11.8326H2.66667C2.39053 11.8326 2.16667 11.6088 2.16667 11.3326C2.16667 11.0565 2.39053 10.8326 2.66667 10.8326Z" fill="black" style="fill:black;fill-opacity:1;"/>
</svg>
