<svg width="16" height="16" viewBox="0 0 16 16" fill="none" xmlns="http://www.w3.org/2000/svg">
<path d="M14.1667 4C14.1667 3.60218 14.0085 3.22076 13.7272 2.93945C13.4459 2.65815 13.0645 2.5 12.6667 2.5H11.3333C10.9355 2.5 10.5541 2.65815 10.2728 2.93945C9.99149 3.22076 9.83334 3.60218 9.83334 4V12C9.83334 12.3978 9.99149 12.7792 10.2728 13.0605C10.5541 13.3419 10.9355 13.5 11.3333 13.5H12.6667L12.8151 13.4928C13.1584 13.4587 13.4811 13.3067 13.7272 13.0605C13.9733 12.8144 14.1254 12.4918 14.1595 12.1484L14.1667 12V4ZM15.1667 12C15.1667 12.663 14.9031 13.2987 14.4343 13.7676C13.9654 14.2364 13.3297 14.5 12.6667 14.5H11.3333C10.6703 14.5 10.0346 14.2364 9.56577 13.7676C9.09692 13.2987 8.83334 12.663 8.83334 12V4C8.83334 3.33696 9.09692 2.70126 9.56577 2.23242C10.0346 1.76358 10.6703 1.5 11.3333 1.5H12.6667C13.3297 1.5 13.9654 1.76358 14.4343 2.23242C14.9031 2.70126 15.1667 3.33696 15.1667 4V12Z" fill="#5C5C5C" style="fill:#5C5C5C;fill:color(display-p3 0.3600 0.3600 0.3600);fill-opacity:1;"/>
<path d="M0.833344 11.3333V4.66667C0.833344 3.82681 1.16721 3.0216 1.76108 2.42773C2.35494 1.83387 3.16016 1.5 4.00001 1.5H5.33334C5.60949 1.5 5.83334 1.72386 5.83334 2C5.83334 2.27614 5.60949 2.5 5.33334 2.5H4.00001C3.42537 2.5 2.87444 2.72844 2.46811 3.13477C2.06178 3.54109 1.83334 4.09203 1.83334 4.66667V11.3333C1.83334 11.908 2.06178 12.4589 2.46811 12.8652C2.87444 13.2716 3.42537 13.5 4.00001 13.5H5.33334C5.60949 13.5 5.83334 13.7239 5.83334 14C5.83334 14.2761 5.60949 14.5 5.33334 14.5H4.00001C3.16016 14.5 2.35494 14.1661 1.76108 13.5723C1.16721 12.9784 0.833344 12.1732 0.833344 11.3333ZM5.64649 5.64648C5.84176 5.45122 6.15826 5.45122 6.35353 5.64648C6.54879 5.84175 6.54879 6.15825 6.35353 6.35352L5.20704 7.5H9.33334C9.60949 7.5 9.83334 7.72386 9.83334 8C9.83334 8.27614 9.60949 8.5 9.33334 8.5H5.20704L6.35353 9.64648L6.38803 9.68425C6.54824 9.88063 6.5366 10.1704 6.35353 10.3535C6.17046 10.5366 5.88064 10.5482 5.68426 10.388L5.64649 10.3535L3.64649 8.35352C3.45123 8.15825 3.45123 7.84175 3.64649 7.64648L5.64649 5.64648Z" fill="#5C5C5C" style="fill:#5C5C5C;fill:color(display-p3 0.3600 0.3600 0.3600);fill-opacity:1;"/>
</svg>
