<svg width="16" height="16" viewBox="0 0 16 16" fill="none" xmlns="http://www.w3.org/2000/svg">
<path d="M13.9998 13.9991H5.9998M10.5925 9.92581L5.64247 4.97448M1.92847 8.40381L8.05713 2.27515C8.30717 2.02519 8.64625 1.88477 8.9998 1.88477C9.35335 1.88477 9.69243 2.02519 9.94247 2.27515L13.2425 5.57515C13.4924 5.82518 13.6329 6.16426 13.6329 6.51781C13.6329 6.87137 13.4924 7.21044 13.2425 7.46048L7.08047 13.6225C6.83921 13.8635 6.51215 13.9989 6.17113 13.9989C5.83012 13.9989 5.50306 13.8635 5.2618 13.6225L1.92847 10.2891C1.67851 10.0391 1.53809 9.70003 1.53809 9.34648C1.53809 8.99293 1.67851 8.65385 1.92847 8.40381Z" stroke="white" stroke-linecap="round" stroke-linejoin="round"/>
</svg>
