<svg width="16" height="16" viewBox="0 0 16 16" fill="none" xmlns="http://www.w3.org/2000/svg">
<path d="M10.1663 5.49976C10.3494 5.31669 10.6392 5.30504 10.8356 5.46525L10.8734 5.49976L12.8734 7.49976C13.0686 7.69502 13.0686 8.01153 12.8734 8.20679L10.8734 10.2068C10.6781 10.402 10.3616 10.402 10.1663 10.2068C9.97108 10.0115 9.97108 9.69502 10.1663 9.49976L11.3128 8.35327H7.85319C7.57705 8.35327 7.35319 8.12941 7.35319 7.85327C7.35319 7.57713 7.57705 7.35327 7.85319 7.35327H11.3128L10.1663 6.20679L10.1318 6.16903C9.97163 5.97264 9.98327 5.68283 10.1663 5.49976ZM12.0199 3.85327V3.1866C12.0199 2.96559 11.932 2.75369 11.7757 2.59741C11.6194 2.44113 11.4075 2.35327 11.1865 2.35327H4.51986C4.29884 2.35327 4.08694 2.44113 3.93066 2.59741C3.77438 2.75369 3.68652 2.96559 3.68652 3.1866V12.5199L3.69043 12.6026C3.70943 12.7933 3.79399 12.9725 3.93066 13.1091C4.08694 13.2654 4.29884 13.3533 4.51986 13.3533H11.1865C11.4075 13.3533 11.6194 13.2654 11.7757 13.1091C11.932 12.9529 12.0199 12.741 12.0199 12.5199V11.8533C12.0199 11.5771 12.2437 11.3533 12.5199 11.3533C12.796 11.3533 13.0199 11.5771 13.0199 11.8533V12.5199C13.0199 13.0062 12.8266 13.4723 12.4827 13.8162C12.1389 14.16 11.6728 14.3533 11.1865 14.3533H4.51986C4.03363 14.3533 3.56745 14.16 3.22363 13.8162C2.87982 13.4723 2.68652 13.0062 2.68652 12.5199V3.1866C2.68652 2.70037 2.87982 2.2342 3.22363 1.89038C3.56745 1.54656 4.03363 1.35327 4.51986 1.35327H11.1865C11.6728 1.35327 12.1389 1.54656 12.4827 1.89038C12.8266 2.2342 13.0199 2.70037 13.0199 3.1866V3.85327C13.0199 4.12941 12.796 4.35327 12.5199 4.35327C12.2437 4.35327 12.0199 4.12941 12.0199 3.85327Z" fill="#6F6F6F" style="fill:#6F6F6F;fill:color(display-p3 0.4359 0.4359 0.4359);fill-opacity:1;"/>
</svg>
