<svg width="16" height="16" viewBox="0 0 16 16" fill="none" xmlns="http://www.w3.org/2000/svg">
<path d="M6.16659 4C6.16659 3.60218 6.00844 3.22076 5.72713 2.93945C5.44583 2.65815 5.06441 2.5 4.66659 2.5H3.33325C2.93543 2.5 2.55401 2.65815 2.27271 2.93945C1.9914 3.22076 1.83325 3.60218 1.83325 4V12C1.83325 12.3978 1.9914 12.7792 2.27271 13.0605C2.55401 13.3419 2.93543 13.5 3.33325 13.5H4.66659L4.81502 13.4928C5.15835 13.4587 5.48103 13.3067 5.72713 13.0605C5.97324 12.8144 6.1253 12.4918 6.15942 12.1484L6.16659 12V4ZM7.16659 12C7.16659 12.663 6.903 13.2987 6.43416 13.7676C5.96532 14.2364 5.32963 14.5 4.66659 14.5H3.33325C2.67021 14.5 2.03451 14.2364 1.56567 13.7676C1.09683 13.2987 0.833252 12.663 0.833252 12V4C0.833252 3.33696 1.09683 2.70126 1.56567 2.23242C2.03451 1.76358 2.67021 1.5 3.33325 1.5H4.66659C5.32963 1.5 5.96532 1.76358 6.43416 2.23242C6.903 2.70126 7.16659 3.33696 7.16659 4V12Z" fill="#5C5C5C" style="fill:#5C5C5C;fill:color(display-p3 0.3600 0.3600 0.3600);fill-opacity:1;"/>
<path d="M14.1666 11.3333V4.66667C14.1666 4.09203 13.9381 3.54109 13.5318 3.13477C13.1255 2.72844 12.5746 2.5 11.9999 2.5H10.6666C10.3904 2.5 10.1666 2.27614 10.1666 2C10.1666 1.72386 10.3904 1.5 10.6666 1.5H11.9999C12.8398 1.5 13.645 1.83387 14.2389 2.42773C14.8327 3.0216 15.1666 3.82681 15.1666 4.66667V11.3333C15.1666 12.1732 14.8327 12.9784 14.2389 13.5723C13.645 14.1661 12.8398 14.5 11.9999 14.5H10.6666C10.3904 14.5 10.1666 14.2761 10.1666 14C10.1666 13.7239 10.3904 13.5 10.6666 13.5H11.9999C12.5746 13.5 13.1255 13.2716 13.5318 12.8652C13.9381 12.4589 14.1666 11.908 14.1666 11.3333ZM9.6464 5.64648C9.82947 5.46342 10.1193 5.45177 10.3157 5.61198L10.3534 5.64648L12.3534 7.64648C12.5487 7.84175 12.5487 8.15825 12.3534 8.35352L10.3534 10.3535C10.1582 10.5488 9.84167 10.5488 9.6464 10.3535C9.45114 10.1583 9.45114 9.84175 9.6464 9.64648L10.7929 8.5H6.66659C6.39044 8.5 6.16659 8.27614 6.16659 8C6.16659 7.72386 6.39044 7.5 6.66659 7.5H10.7929L9.6464 6.35352L9.6119 6.31576C9.45169 6.11937 9.46333 5.82955 9.6464 5.64648Z" fill="#5C5C5C" style="fill:#5C5C5C;fill:color(display-p3 0.3600 0.3600 0.3600);fill-opacity:1;"/>
</svg>
