<svg width="24" height="24" viewBox="0 0 24 24" fill="none" xmlns="http://www.w3.org/2000/svg">
<path d="M18.9995 15.25C19.4137 15.25 19.7495 15.5858 19.7495 16V18.25H21.9995C22.4137 18.25 22.7495 18.5858 22.7495 19C22.7495 19.4142 22.4137 19.75 21.9995 19.75H19.7495V22C19.7495 22.4142 19.4137 22.75 18.9995 22.75C18.5854 22.7498 18.2495 22.4141 18.2495 22V19.75H15.9995C15.5854 19.7498 15.2495 19.4141 15.2495 19C15.2495 18.5859 15.5854 18.2502 15.9995 18.25H18.2495V16C18.2495 15.5859 18.5854 15.2502 18.9995 15.25Z" fill="#8B8B8B"/>
<path d="M20.4008 2.25C20.7586 2.25022 21.1019 2.39253 21.3549 2.64551C21.6079 2.89857 21.7503 3.24181 21.7504 3.59961V13C21.7504 13.4141 21.4145 13.7498 21.0004 13.75C20.5862 13.75 20.2504 13.4142 20.2504 13V3.75H3.75043V14.8613L9.70356 12.3105C9.89733 12.2275 10.118 12.2302 10.31 12.3174L15.81 14.8174L15.8784 14.8525C16.2066 15.0441 16.3427 15.4571 16.1821 15.8105C16.0106 16.1874 15.5659 16.354 15.1889 16.1826L9.99067 13.8193L3.75043 16.4941V20.25H13.0004C13.4145 20.2502 13.7504 20.5859 13.7504 21C13.7504 21.4141 13.4145 21.7498 13.0004 21.75H3.60004C3.24224 21.7499 2.899 21.6074 2.64594 21.3545C2.39286 21.1014 2.25053 20.7583 2.25043 20.4004V16.0127C2.25033 16.0062 2.25037 15.9997 2.25043 15.9932V3.59961C2.25053 3.24171 2.39286 2.89859 2.64594 2.64551C2.899 2.39256 3.24224 2.2501 3.60004 2.25H20.4008Z" fill="#8B8B8B"/>
<path fill-rule="evenodd" clip-rule="evenodd" d="M16.2709 5.26367C16.9005 5.32611 17.4925 5.60444 17.9438 6.05566C18.4595 6.57139 18.7495 7.27065 18.7495 8C18.7495 8.72935 18.4595 9.42861 17.9438 9.94434C17.4281 10.46 16.7287 10.75 15.9995 10.75C15.2702 10.7499 14.5708 10.46 14.0551 9.94434C13.5395 9.42863 13.2495 8.72926 13.2495 8C13.2495 7.27074 13.5395 6.57137 14.0551 6.05566C14.5708 5.54002 15.2702 5.25009 15.9995 5.25L16.2709 5.26367ZM15.9995 6.75C15.6681 6.75009 15.35 6.88187 15.1157 7.11621C14.8814 7.35061 14.7495 7.66856 14.7495 8C14.7495 8.33144 14.8814 8.64939 15.1157 8.88379C15.35 9.11813 15.6681 9.24991 15.9995 9.25C16.3309 9.25 16.6488 9.1181 16.8832 8.88379C17.1177 8.64937 17.2495 8.33152 17.2495 8C17.2495 7.66848 17.1177 7.35063 16.8832 7.11621C16.6783 6.9113 16.4094 6.78435 16.1235 6.75586L15.9995 6.75Z" fill="#8B8B8B"/>
</svg>
