<svg width="24" height="24" viewBox="0 0 24 24" fill="none" xmlns="http://www.w3.org/2000/svg">
<path d="M11.0297 17.7798V12.5298H5.77969C5.36548 12.5298 5.02969 12.194 5.02969 11.7798C5.02969 11.3656 5.36548 11.0298 5.77969 11.0298H11.0297V5.77979C11.0297 5.36557 11.3655 5.02979 11.7797 5.02979C12.1939 5.02979 12.5297 5.36557 12.5297 5.77979V11.0298H17.7797C18.1939 11.0298 18.5297 11.3656 18.5297 11.7798C18.5297 12.194 18.1939 12.5298 17.7797 12.5298H12.5297V17.7798C12.5297 18.194 12.1939 18.5298 11.7797 18.5298C11.3655 18.5298 11.0297 18.194 11.0297 17.7798Z" fill="#171719"/>
</svg>
