<svg width="24" height="24" viewBox="0 0 24 24" fill="none" xmlns="http://www.w3.org/2000/svg">
<path d="M16.714 6.22746C17.007 5.93471 17.4817 5.93457 17.7746 6.22746C18.0673 6.52032 18.0672 6.99516 17.7746 7.288L13.0607 11.9999L17.7746 16.7138L17.8254 16.7704C18.0658 17.065 18.0492 17.4997 17.7746 17.7743C17.4999 18.049 17.0653 18.0655 16.7707 17.8251L16.714 17.7743L12.0011 13.0614L7.28825 17.7743C6.9954 18.067 6.52055 18.067 6.2277 17.7743C5.93486 17.4815 5.93497 17.0067 6.2277 16.7138L10.9396 12.0009L6.2277 7.288C5.93485 6.9951 5.93483 6.52033 6.2277 6.22746C6.52061 5.93461 6.99538 5.93459 7.28825 6.22746L12.0002 10.9403L16.714 6.22746Z" fill="white" style="fill:white;fill-opacity:1;"/>
</svg>
