<svg width="16" height="16" viewBox="0 0 16 16" fill="none" xmlns="http://www.w3.org/2000/svg">
<path d="M7.33333 14V9.06667C7.33333 8.96058 7.29119 8.85884 7.21618 8.78382C7.14116 8.70881 7.03942 8.66667 6.93333 8.66667H2M7.33333 14H2.4C2.29391 14 2.19217 13.9579 2.11716 13.8828C2.04214 13.8078 2 13.7061 2 13.6V8.66667M7.33333 14H9.33333M2 8.66667V6.66667M4 2H2.4C2.29391 2 2.19217 2.04214 2.11716 2.11716C2.04214 2.19217 2 2.29391 2 2.4V4M9.33333 2H6.66667M14 6.66667V9.33333M12 2H13.6C13.7061 2 13.8078 2.04214 13.8828 2.11716C13.9579 2.19217 14 2.29391 14 2.4V4M12 14H13.6C13.7061 14 13.8078 13.9579 13.8828 13.8828C13.9579 13.8078 14 13.7061 14 13.6V12M7.33333 6.66667H9.33333V8.66667" stroke="white" stroke-linecap="round" stroke-linejoin="round"/>
</svg>
