<svg width="24" height="24" viewBox="0 0 24 24" fill="none" xmlns="http://www.w3.org/2000/svg">
<path d="M7 10.75C7.33152 10.75 7.64937 10.8818 7.88379 11.1162C8.11821 11.3506 8.25 11.6685 8.25 12C8.25 12.3315 8.11821 12.6494 7.88379 12.8838C7.64937 13.1182 7.33152 13.25 7 13.25C6.66848 13.25 6.35063 13.1182 6.11621 12.8838C5.88179 12.6494 5.75 12.3315 5.75 12C5.75 11.6685 5.88179 11.3506 6.11621 11.1162C6.35063 10.8818 6.66848 10.75 7 10.75Z" fill="#8B8B8B"/>
<path d="M12 10.75C12.3315 10.75 12.6494 10.8818 12.8838 11.1162C13.1182 11.3506 13.25 11.6685 13.25 12C13.25 12.3315 13.1182 12.6494 12.8838 12.8838C12.6494 13.1182 12.3315 13.25 12 13.25C11.6685 13.25 11.3506 13.1182 11.1162 12.8838C10.8818 12.6494 10.75 12.3315 10.75 12C10.75 11.6685 10.8818 11.3506 11.1162 11.1162L11.208 11.0332C11.4304 10.851 11.7099 10.75 12 10.75Z" fill="#8B8B8B"/>
<path d="M17 10.75C17.3315 10.75 17.6494 10.8818 17.8838 11.1162C18.1182 11.3506 18.25 11.6685 18.25 12C18.25 12.3315 18.1182 12.6494 17.8838 12.8838C17.6494 13.1182 17.3315 13.25 17 13.25C16.6685 13.25 16.3506 13.1182 16.1162 12.8838C15.8818 12.6494 15.75 12.3315 15.75 12C15.75 11.6685 15.8818 11.3506 16.1162 11.1162L16.208 11.0332C16.4304 10.851 16.7099 10.75 17 10.75Z" fill="#8B8B8B"/>
<path fill-rule="evenodd" clip-rule="evenodd" d="M12 1.25C17.9372 1.25 22.75 6.06279 22.75 12C22.75 17.9372 17.9372 22.75 12 22.75C6.06279 22.75 1.25 17.9372 1.25 12C1.25 6.06279 6.06279 1.25 12 1.25ZM12 2.75C6.89121 2.75 2.75 6.89121 2.75 12C2.75 17.1088 6.89121 21.25 12 21.25C17.1088 21.25 21.25 17.1088 21.25 12C21.25 6.89121 17.1088 2.75 12 2.75Z" fill="#8B8B8B"/>
</svg>
