<svg width="25" height="24" viewBox="0 0 25 24" fill="none" xmlns="http://www.w3.org/2000/svg">
<path fill-rule="evenodd" clip-rule="evenodd" d="M20.5 12.1828C20.5 11.6155 20.4481 11.07 20.3516 10.5464H12.6633V13.641H17.0566C16.8674 14.6411 16.2922 15.4883 15.4276 16.0556V18.063H18.0659C19.6095 16.6702 20.5 14.6192 20.5 12.1828Z" fill="#4285F4" style="fill:#4285F4;fill:color(display-p3 0.2588 0.5216 0.9569);fill-opacity:1;"/>
<path fill-rule="evenodd" clip-rule="evenodd" d="M12.6633 20.0002C14.8674 20.0002 16.7152 19.2838 18.0659 18.062L15.4277 16.0546C14.6967 16.5347 13.7616 16.8183 12.6633 16.8183C10.5371 16.8183 8.73749 15.411 8.09556 13.52H5.36829V15.5928C6.71151 18.2074 9.47218 20.0002 12.6633 20.0002Z" fill="#34A853" style="fill:#34A853;fill:color(display-p3 0.2039 0.6588 0.3255);fill-opacity:1;"/>
<path fill-rule="evenodd" clip-rule="evenodd" d="M8.09555 13.5196C7.93228 13.0396 7.83952 12.5269 7.83952 11.9996C7.83952 11.4723 7.93228 10.9595 8.09555 10.4795V8.40674H5.36827C4.8154 9.48677 4.5 10.7086 4.5 11.9996C4.5 13.2905 4.8154 14.5124 5.36827 15.5924L8.09555 13.5196Z" fill="#FBBC05" style="fill:#FBBC05;fill:color(display-p3 0.9843 0.7373 0.0196);fill-opacity:1;"/>
<path fill-rule="evenodd" clip-rule="evenodd" d="M12.6633 7.18191C13.8618 7.18191 14.9379 7.58556 15.7839 8.37831L18.1252 6.0837C16.7115 4.79275 14.8636 4 12.6633 4C9.47218 4 6.71151 5.79278 5.36829 8.4074L8.09556 10.4802C8.73749 8.58923 10.5371 7.18191 12.6633 7.18191Z" fill="#EA4335" style="fill:#EA4335;fill:color(display-p3 0.9176 0.2627 0.2078);fill-opacity:1;"/>
</svg>
