<svg width="16" height="16" viewBox="0 0 16 16" fill="none" xmlns="http://www.w3.org/2000/svg">
<path d="M4.66667 2H3.33333C2.97971 2 2.64057 2.14048 2.39052 2.39052C2.14048 2.64057 2 2.97971 2 3.33333V4.66667M11.3333 2H12.6667C13.0203 2 13.3594 2.14048 13.6095 2.39052C13.8595 2.64057 14 2.97971 14 3.33333V4.66667M10.6667 5.33333V6.66667M5.33333 5.33333V6.66667M6 10.6667C6 10.6667 6.66667 11.3333 8 11.3333C9.33333 11.3333 10 10.6667 10 10.6667M8 5.33333V8.66667H7.33333M4.66667 14H3.33333C2.97971 14 2.64057 13.8595 2.39052 13.6095C2.14048 13.3594 2 13.0203 2 12.6667V11.3333M11.3333 14H12.6667C13.0203 14 13.3594 13.8595 13.6095 13.6095C13.8595 13.3594 14 13.0203 14 12.6667V11.3333" stroke="black" stroke-linecap="round" stroke-linejoin="round"/>
</svg>
