<svg width="22" height="8" viewBox="0 0 22 8" fill="none" xmlns="http://www.w3.org/2000/svg">
<rect width="21.7981" height="8.0001" rx="4.00005" fill="#FFD028"/>
<path d="M15.4662 6.0001C14.7584 6.0001 14.27 5.68186 14.27 5.14963C14.27 4.62289 14.7254 4.27173 15.5265 4.2004L16.7501 4.09066L16.7556 4.05225C16.783 3.83826 16.569 3.67914 16.1356 3.67914C15.7076 3.67914 15.4332 3.83826 15.3125 4.06871L14.5553 3.85472C14.7913 3.33895 15.3564 2.98779 16.1959 2.98779C17.1122 2.98779 17.6938 3.38285 17.5951 4.07968L17.4469 5.13317C17.425 5.29229 17.5128 5.35264 17.7981 5.29229L17.7103 5.93974C17.1452 6.04948 16.7611 5.89585 16.6513 5.61053C16.366 5.84646 15.96 6.0001 15.4662 6.0001ZM16.6458 4.83688L16.6678 4.67227L15.6198 4.78201C15.2961 4.81493 15.1315 4.91369 15.1315 5.08379C15.1315 5.25388 15.318 5.35813 15.6527 5.35813C16.174 5.35813 16.6074 5.13317 16.6458 4.83688Z" fill="black"/>
<path d="M11.9419 4.9793L12.112 3.77218H11.4536L11.5579 3.04791H12.2163L12.326 2.24683H13.193L13.0777 3.04791H14.2794L14.1751 3.77218H12.979L12.8308 4.80372C12.7924 5.1055 12.9515 5.2317 13.2972 5.2317C13.5167 5.2317 13.7416 5.17683 13.9447 5.10001L14.016 5.80782C13.7691 5.90658 13.4728 5.9834 13.1052 5.9834C12.326 5.9834 11.8487 5.62675 11.9419 4.9793Z" fill="black"/>
<path d="M9.6287 5.30875C9.99632 5.30875 10.3091 5.14414 10.4627 4.85882L11.2089 5.1606C10.9236 5.69283 10.3255 6.0001 9.59029 6.0001C8.64106 6.0001 7.94971 5.413 7.94971 4.58997C7.94971 3.71206 8.68495 2.98779 9.75489 2.98779C10.7261 2.98779 11.3406 3.57489 11.3406 4.34306C11.3406 4.43633 11.3351 4.56253 11.3022 4.72165H8.79469C8.8715 5.08927 9.21169 5.30875 9.6287 5.30875ZM9.711 3.66817C9.32143 3.66817 9.00319 3.87118 8.86053 4.18394H10.4901C10.4572 3.90959 10.1774 3.66817 9.711 3.66817Z" fill="black"/>
<path d="M4.93277 5.57745L4.8779 5.93959H4L4.55418 2H5.43208L5.24004 3.36624C5.465 3.13579 5.83262 2.98764 6.24414 2.98764C7.1385 2.98764 7.69268 3.60217 7.69268 4.37582C7.69268 5.22629 7.03974 5.99994 6.01369 5.99994C5.55279 5.99994 5.17419 5.83534 4.93277 5.57745ZM5.99174 3.69545C5.42659 3.69545 5.04251 4.09051 5.04251 4.56238C5.04251 5.00133 5.39367 5.29214 5.88749 5.29214C6.45264 5.29214 6.83672 4.89708 6.83672 4.42521C6.83672 3.99174 6.48556 3.69545 5.99174 3.69545Z" fill="black"/>
</svg>
