<svg width="53" height="16" viewBox="0 0 53 16" fill="none" xmlns="http://www.w3.org/2000/svg">
<path d="M5 15L0.44 0.94H3.12L6.5 11.76H5.6L8.92 0.94H10.94L14.26 11.76H13.34L16.74 0.94H19.42L14.84 15H12.82L9.48 4.2H10.36L7.04 15H5ZM21.0038 15V5.34H23.6438V15H21.0038ZM22.3238 3.78C21.8971 3.78 21.5438 3.64 21.2638 3.36C20.9838 3.06667 20.8438 2.70667 20.8438 2.28C20.8438 1.86667 20.9838 1.51333 21.2638 1.22C21.5438 0.926666 21.8971 0.779999 22.3238 0.779999C22.7638 0.779999 23.1171 0.926666 23.3838 1.22C23.6638 1.51333 23.8038 1.86667 23.8038 2.28C23.8038 2.70667 23.6638 3.06667 23.3838 3.36C23.1171 3.64 22.7638 3.78 22.3238 3.78ZM30.0447 15.2C29.1514 15.2 28.3514 14.98 27.6447 14.54C26.938 14.1 26.378 13.5 25.9647 12.74C25.5647 11.98 25.3647 11.1267 25.3647 10.18C25.3647 9.22 25.5647 8.36 25.9647 7.6C26.378 6.84 26.9314 6.24 27.6247 5.8C28.3314 5.36 29.138 5.14 30.0447 5.14C30.738 5.14 31.358 5.28 31.9047 5.56C32.4647 5.84 32.9114 6.23333 33.2447 6.74C33.5914 7.23333 33.778 7.79333 33.8047 8.42V11.86C33.778 12.4867 33.598 13.0533 33.2647 13.56C32.9314 14.0667 32.4847 14.4667 31.9247 14.76C31.3647 15.0533 30.738 15.2 30.0447 15.2ZM30.4847 12.78C30.978 12.78 31.4047 12.6733 31.7647 12.46C32.138 12.2333 32.4247 11.9267 32.6247 11.54C32.838 11.14 32.9447 10.68 32.9447 10.16C32.9447 9.65333 32.838 9.20667 32.6247 8.82C32.4247 8.42 32.138 8.11333 31.7647 7.9C31.4047 7.67333 30.9847 7.56 30.5047 7.56C30.0114 7.56 29.578 7.67333 29.2047 7.9C28.8447 8.12667 28.558 8.43333 28.3447 8.82C28.1447 9.20667 28.0447 9.65333 28.0447 10.16C28.0447 10.68 28.1447 11.14 28.3447 11.54C28.558 11.9267 28.8514 12.2333 29.2247 12.46C29.598 12.6733 30.018 12.78 30.4847 12.78ZM35.4047 15H32.8047V12.4L33.2247 10.04L32.7847 7.72V0.539999H35.4047V15ZM41.7625 15.2C40.8825 15.2 40.0892 14.98 39.3825 14.54C38.6758 14.1 38.1225 13.5 37.7225 12.74C37.3225 11.98 37.1225 11.1267 37.1225 10.18C37.1225 9.22 37.3225 8.36 37.7225 7.6C38.1225 6.84 38.6758 6.24 39.3825 5.8C40.0892 5.36 40.8825 5.14 41.7625 5.14C42.4558 5.14 43.0758 5.28 43.6225 5.56C44.1692 5.84 44.6025 6.23333 44.9225 6.74C45.2558 7.23333 45.4358 7.79333 45.4625 8.42V11.9C45.4358 12.54 45.2558 13.1067 44.9225 13.6C44.6025 14.0933 44.1692 14.4867 43.6225 14.78C43.0758 15.06 42.4558 15.2 41.7625 15.2ZM42.2425 12.78C42.9758 12.78 43.5692 12.54 44.0225 12.06C44.4758 11.5667 44.7025 10.9333 44.7025 10.16C44.7025 9.65333 44.5958 9.20667 44.3825 8.82C44.1825 8.42 43.8958 8.11333 43.5225 7.9C43.1625 7.67333 42.7358 7.56 42.2425 7.56C41.7625 7.56 41.3358 7.67333 40.9625 7.9C40.6025 8.11333 40.3158 8.42 40.1025 8.82C39.9025 9.20667 39.8025 9.65333 39.8025 10.16C39.8025 10.68 39.9025 11.14 40.1025 11.54C40.3158 11.9267 40.6025 12.2333 40.9625 12.46C41.3358 12.6733 41.7625 12.78 42.2425 12.78ZM44.5625 15V12.4L44.9825 10.04L44.5625 7.72V5.34H47.1625V15H44.5625ZM49.4803 15V5.34H52.1203V15H49.4803ZM50.8003 3.78C50.3736 3.78 50.0203 3.64 49.7403 3.36C49.4603 3.06667 49.3203 2.70667 49.3203 2.28C49.3203 1.86667 49.4603 1.51333 49.7403 1.22C50.0203 0.926666 50.3736 0.779999 50.8003 0.779999C51.2403 0.779999 51.5936 0.926666 51.8603 1.22C52.1403 1.51333 52.2803 1.86667 52.2803 2.28C52.2803 2.70667 52.1403 3.06667 51.8603 3.36C51.5936 3.64 51.2403 3.78 50.8003 3.78Z" fill="black" style="fill:black;fill-opacity:1;"/>
</svg>
